<svg width="120" height="40" viewBox="0 0 120 40" xmlns="http://www.w3.org/2000/svg">
  <g transform="translate(10,8)">
    <path d="M12 2C6.48 2 2 6.48 2 12s4.48 10 10 10c1.61 0 3.14-.37 4.5-1.03l-.84-1.46A8.48 8.48 0 0 1 12 20.5c-4.69 0-8.5-3.81-8.5-8.5S7.31 3.5 12 3.5c2.29 0 4.36.91 5.88 2.38l1.06-1.06A9.96 9.96 0 0 0 12 2z" fill="#4285F4"/>
    <path d="M22 12h-10v1.5h8.38c-.45 2.27-2.44 4-4.88 4.5v1.5c3.5-.5 6.2-3.36 6.5-7z" fill="#34A853"/>
    <circle cx="12" cy="12" r="3" fill="#FBBC05"/>
    <path d="M12 9v6c1.66 0 3-1.34 3-3s-1.34-3-3-3z" fill="#EA4335"/>
  </g>
  <text x="40" y="22" font-family="Arial, sans-serif" font-size="12" font-weight="500" fill="#5F6368">Google</text>
</svg>