<svg width="120" height="40" viewBox="0 0 120 40" xmlns="http://www.w3.org/2000/svg">
  <g transform="translate(8,8)">
    <path d="M8 4h8c4 0 7 2 7 6s-3 6-7 6h-4v8H8V4zm4 8h4c2 0 3-1 3-2s-1-2-3-2h-4v4z" fill="#003087"/>
    <path d="M28 12c0 4 3 8 8 8 1 0 2-0.5 3-1v-2c-1 1-2 1-3 1-3 0-5-2-5-6s2-6 5-6c1 0 2 0 3 1V5c-1-0.5-2-1-3-1-5 0-8 4-8 8z" fill="#003087"/>
    <path d="M48 4v16h-4V4h4z" fill="#009CDE"/>
  </g>
  <text x="60" y="22" font-family="Arial, sans-serif" font-size="12" font-weight="600" fill="#003087">PayPal</text>
</svg>